<svg xmlns="http://www.w3.org/2000/svg" viewBox="0 0 1200 900"><style>@keyframes a0_do{0%{stroke-dashoffset:0}to{stroke-dashoffset:74px}}@keyframes a1_do{0%{stroke-dashoffset:0}to{stroke-dashoffset:74px}}@keyframes a2_do{0%{stroke-dashoffset:0}to{stroke-dashoffset:74px}}</style><g fill="none" fill-rule="evenodd"><g fill-rule="nonzero"><path d="M989.87 389.64v22.6h-779.7v-22.6c0-3.164 2.486-5.65 5.65-5.65h768.4c3.164 0 5.65 2.486 5.65 5.65z" fill="#353535"></path><path fill="#a3a3a3" d="M218.08 390.77h4.52v4.52h-4.52zm6.78 0h4.52v4.52h-4.52zm6.78 0h4.52v4.52h-4.52z"></path></g><path d="M211.599 351.734h3.475v16.436h-3.475v-16.436zm9.694 9.31v7.126h-3.418v-12.327h3.258v2.175h.144q.41-1.076 1.373-1.706.963-.63 2.335-.63 1.284 0 2.24.562.954.562 1.484 1.601.53 1.04.53 2.476v7.849h-3.42v-7.24q.009-1.13-.577-1.769-.586-.638-1.613-.638-.69 0-1.216.297t-.819.863q-.293.566-.3 1.36zm16.188 11.925q-1.661 0-2.845-.45-1.184-.449-1.882-1.211t-.907-1.693l3.162-.426q.145.337.458.638.313.301.83.494.518.192 1.264.192 1.116 0 1.842-.53.726-.529.726-1.74v-2.256h-.144q-.225.514-.674.971-.45.458-1.156.747-.706.288-1.685.288-1.389 0-2.524-.646-1.136-.646-1.806-1.982-.67-1.336-.67-3.383 0-2.094.682-3.499.682-1.404 1.818-2.103 1.135-.698 2.492-.698 1.035 0 1.733.35.699.348 1.128.866.43.518.662 1.015h.128v-2.07h3.395v12.447q0 1.541-.77 2.58-.77 1.04-2.131 1.57-1.36.53-3.126.53zm.072-7.544q.827 0 1.4-.413.575-.413.884-1.188.308-.774.308-1.858 0-1.083-.304-1.882-.305-.798-.883-1.24-.578-.441-1.405-.441-.842 0-1.42.453-.578.454-.875 1.256-.297.803-.297 1.854 0 1.068.3 1.842.302.775.876 1.196.574.421 1.416.421zm12.103 2.745h-3.42v-12.327h3.315v2.15h.129q.337-1.147 1.131-1.737.795-.59 1.83-.59.257 0 .554.032.297.032.522.089v3.033q-.241-.072-.666-.128-.426-.056-.779-.056-.754 0-1.344.325-.59.325-.931.903-.341.577-.341 1.332v6.974zm10.858.24q-1.902 0-3.27-.774t-2.107-2.199q-.738-1.424-.738-3.374 0-1.903.738-3.34.739-1.436 2.083-2.238 1.344-.803 3.158-.803 1.22 0 2.275.39 1.056.389 1.846 1.167.79.779 1.232 1.954.441 1.176.441 2.75v.938h-10.409v-2.119h7.191q0-.738-.32-1.308-.322-.57-.888-.895-.565-.325-1.312-.325-.778 0-1.376.357-.598.358-.935.956-.337.597-.345 1.328v2.014q0 .915.34 1.581.342.666.968 1.027.626.362 1.485.362.57 0 1.043-.16.473-.161.81-.482.338-.321.514-.787l3.162.209q-.24 1.14-.983 1.986-.742.847-1.91 1.316-1.168.47-2.693.47zm18.146-9.052l-3.13.193q-.08-.402-.345-.727-.265-.325-.694-.521-.43-.197-1.023-.197-.795 0-1.34.333-.546.333-.546.887 0 .441.353.746t1.212.49l2.23.45q1.798.368 2.681 1.187.883.819.883 2.15 0 1.213-.71 2.128t-1.942 1.424q-1.232.51-2.837.51-2.448 0-3.897-1.023-1.448-1.024-1.697-2.79l3.362-.176q.153.746.739 1.136.586.389 1.5.389.9 0 1.45-.35.549-.348.557-.902-.008-.466-.393-.767-.385-.3-1.188-.461l-2.135-.425q-1.806-.361-2.684-1.252-.88-.891-.88-2.272 0-1.187.647-2.046.646-.859 1.822-1.324 1.175-.466 2.756-.466 2.336 0 3.68.987 1.344.988 1.57 2.689zm12.697 0l-3.13.193q-.08-.402-.345-.727-.265-.325-.695-.521-.429-.197-1.023-.197-.794 0-1.34.333t-.546.887q0 .441.353.746t1.212.49l2.231.45q1.798.368 2.68 1.187.884.819.884 2.15 0 1.213-.71 2.128-.711.915-1.943 1.424-1.232.51-2.837.51-2.448 0-3.896-1.023-1.449-1.024-1.698-2.79l3.363-.176q.152.746.738 1.136.586.389 1.501.389.899 0 1.449-.35.55-.348.557-.902-.008-.466-.393-.767-.385-.3-1.188-.461l-2.134-.425q-1.806-.361-2.685-1.252t-.879-2.272q0-1.187.646-2.046.646-.859 1.822-1.324 1.176-.466 2.757-.466 2.335 0 3.68.987 1.344.988 1.569 2.689z" fill="#4a4a4a" fill-rule="nonzero"></path><g fill-rule="nonzero"><path d="M689.29 545.58v22.6H210.17v-22.6c0-3.164 2.486-5.65 5.65-5.65h467.82c3.164 0 5.65 2.486 5.65 5.65z" fill="#d2d2d2"></path><path fill="#a3a3a3" d="M218.08 546.71h4.52v4.52h-4.52zm6.78 0h4.52v4.52h-4.52zm6.78 0h4.52v4.52h-4.52z"></path></g><g fill-rule="nonzero"><path fill="#9eebcf" d="M435.04 411.11v128.82h-3.39V411.11z"></path><path stroke="#9eebcf" stroke-width="3" fill="#fff" d="M440.69 410.545a6.5 6.5 0 11-14.69 0 6.5 6.5 0 1114.69 0z"></path><path fill="#9eebcf" d="M433.345 544.45l-6.215-9.04h12.43z"></path></g><g fill-rule="nonzero"><path fill="#9eebcf" d="M325.43 567.05v97.18h-3.39v-97.18z"></path><path stroke="#9eebcf" stroke-width="3" fill="#fff" d="M331.08 566.485a6.5 6.5 0 11-14.69 0 6.5 6.5 0 1114.69 0z"></path><path fill="#9eebcf" d="M323.735 668.75l-6.215-9.04h12.43z"></path></g><path d="M436.17 855.313c0 1.13-.678 2.147-1.582 2.147H211.752c-.904 0-1.582-1.017-1.582-2.147V669.88c0-3.164 2.486-5.65 5.65-5.65h214.7c3.164 0 5.65 2.486 5.65 5.65v185.433z" fill="#ff003c"></path><path d="M215.82 664.23h214.7c3.164 0 5.65 2.486 5.65 5.65v20.34h-226v-20.34c0-3.164 2.486-5.65 5.65-5.65z" fill="#ccc"></path><path d="M229.38 678.355a5.064 5.064 0 01-5.085 5.085 5.064 5.064 0 01-5.085-5.085 5.064 5.064 0 015.085-5.085 5.064 5.064 0 015.085 5.085" fill="#e74c3c"></path><path d="M247.46 678.355a5.064 5.064 0 01-5.085 5.085 5.064 5.064 0 01-5.085-5.085 5.064 5.064 0 015.085-5.085 5.064 5.064 0 015.085 5.085" fill="#f1c40f"></path><path d="M264.41 678.355a5.064 5.064 0 01-5.085 5.085 5.064 5.064 0 01-5.085-5.085 5.064 5.064 0 015.085-5.085 5.064 5.064 0 015.085 5.085" fill="#2ecc71"></path><path d="M215.074 648.41h-3.475v-16.436h6.484q1.87 0 3.186.71 1.317.71 2.01 1.966.695 1.256.695 2.893 0 1.638-.706 2.89-.707 1.252-2.043 1.95-1.336.698-3.23.698h-4.133v-2.785h3.571q1.003 0 1.657-.349.655-.35.98-.971.325-.622.325-1.433 0-.818-.325-1.432t-.984-.955q-.658-.341-1.669-.341h-2.343v13.595zm16.46.24q-1.87 0-3.23-.798-1.36-.798-2.099-2.23-.738-1.433-.738-3.327 0-1.91.738-3.343t2.099-2.231q1.36-.799 3.23-.799 1.87 0 3.23.799 1.36.798 2.099 2.23.738 1.433.738 3.344 0 1.894-.738 3.326-.738 1.433-2.099 2.231-1.36.799-3.23.799zm.016-2.648q.85 0 1.42-.485.57-.486.863-1.328.293-.843.293-1.919 0-1.075-.293-1.918-.293-.842-.862-1.332-.57-.49-1.42-.49-.86 0-1.441.49-.582.49-.875 1.332-.293.843-.293 1.918 0 1.076.293 1.919.293.842.875 1.328.581.485 1.44.485zm12.825 2.609q-1.405 0-2.54-.727-1.136-.726-1.798-2.143-.662-1.416-.662-3.479 0-2.118.682-3.527.682-1.408 1.818-2.11 1.136-.703 2.492-.703 1.035 0 1.73.35.694.348 1.123.866.43.518.654 1.015h.104v-6.18h3.411v16.437h-3.37v-1.974h-.145q-.24.513-.678 1.015-.437.502-1.132.83-.694.33-1.689.33zm1.083-2.721q.827 0 1.4-.453.575-.454.884-1.273.309-.818.309-1.918t-.305-1.91q-.305-.81-.883-1.252-.578-.441-1.405-.441-.842 0-1.42.457-.578.458-.875 1.268-.297.811-.297 1.878 0 1.076.301 1.898.301.823.875 1.285.574.461 1.416.461zm17.825-13.916h3.267v16.436h-3.475v-13.138h-.097l-3.764 2.36v-3.082l4.07-2.576z" fill="#4a4a4a" fill-rule="nonzero"></path><g fill-rule="nonzero"><path fill="#9eebcf" d="M578.55 567.05v97.18h-3.39v-97.18z"></path><path stroke="#9eebcf" stroke-width="3" fill="#fff" d="M584.2 566.485a6.5 6.5 0 11-14.69 0 6.5 6.5 0 1114.69 0z"></path><path fill="#9eebcf" d="M576.855 668.75l-6.215-9.04h12.43z"></path></g><path d="M689.29 855.313c0 1.13-.678 2.147-1.582 2.147H464.872c-.904 0-1.582-1.017-1.582-2.147V669.88c0-3.164 2.486-5.65 5.65-5.65h214.7c3.164 0 5.65 2.486 5.65 5.65v185.433z" fill="#ff003c"></path><path d="M468.94 664.23h214.7c3.164 0 5.65 2.486 5.65 5.65v20.34h-226v-20.34c0-3.164 2.486-5.65 5.65-5.65z" fill="#ccc"></path><path d="M482.5 678.355a5.064 5.064 0 01-5.085 5.085 5.064 5.064 0 01-5.085-5.085 5.064 5.064 0 015.085-5.085 5.064 5.064 0 015.085 5.085" fill="#e74c3c"></path><path d="M500.58 678.355a5.064 5.064 0 01-5.085 5.085 5.064 5.064 0 01-5.085-5.085 5.064 5.064 0 015.085-5.085 5.064 5.064 0 015.085 5.085" fill="#f1c40f"></path><path d="M517.53 678.355a5.064 5.064 0 01-5.085 5.085 5.064 5.064 0 01-5.085-5.085 5.064 5.064 0 015.085-5.085 5.064 5.064 0 015.085 5.085" fill="#2ecc71"></path><path d="M468.194 648.41h-3.475v-16.436h6.484q1.87 0 3.186.71 1.317.71 2.01 1.966.695 1.256.695 2.893 0 1.638-.706 2.89-.707 1.252-2.043 1.95-1.336.698-3.23.698h-4.133v-2.785h3.571q1.003 0 1.657-.349.655-.35.98-.971.325-.622.325-1.433 0-.818-.325-1.432t-.984-.955q-.658-.341-1.669-.341h-2.343v13.595zm16.46.24q-1.87 0-3.23-.798-1.36-.798-2.099-2.23-.738-1.433-.738-3.327 0-1.91.738-3.343t2.099-2.231q1.36-.799 3.23-.799 1.87 0 3.23.799 1.36.798 2.099 2.23.738 1.433.738 3.344 0 1.894-.738 3.326-.738 1.433-2.099 2.231-1.36.799-3.23.799zm.016-2.648q.85 0 1.42-.485.57-.486.863-1.328.293-.843.293-1.919 0-1.075-.293-1.918-.293-.842-.862-1.332-.57-.49-1.42-.49-.86 0-1.441.49-.582.49-.875 1.332-.293.843-.293 1.918 0 1.076.293 1.919.293.842.875 1.328.581.485 1.44.485zm12.825 2.609q-1.405 0-2.54-.727-1.136-.726-1.798-2.143-.662-1.416-.662-3.479 0-2.118.682-3.527.682-1.408 1.818-2.11 1.136-.703 2.492-.703 1.035 0 1.73.35.694.348 1.123.866.43.518.654 1.015h.104v-6.18h3.411v16.437h-3.37v-1.974h-.145q-.24.513-.678 1.015-.437.502-1.132.83-.694.33-1.689.33zm1.083-2.721q.827 0 1.4-.453.575-.454.884-1.273.309-.818.309-1.918t-.305-1.91q-.305-.81-.883-1.252-.578-.441-1.405-.441-.842 0-1.42.457-.578.458-.875 1.268-.297.811-.297 1.878 0 1.076.301 1.898.301.823.875 1.285.574.461 1.416.461zm25.658 2.52H512.52v-2.504l5.85-5.417q.747-.723 1.256-1.3.51-.578.775-1.136.265-.558.265-1.208 0-.722-.33-1.248-.328-.525-.898-.81-.57-.285-1.292-.285-.755 0-1.316.305-.562.305-.867.874-.305.57-.305 1.357h-3.299q0-1.613.73-2.801.731-1.188 2.047-1.838 1.316-.65 3.034-.65 1.765 0 3.078.622 1.312.622 2.042 1.721.73 1.1.73 2.52 0 .931-.365 1.838t-1.296 2.01q-.93 1.104-2.624 2.645l-2.4 2.352v.112h6.902v2.841zm-309.162-124.3h-3.475v-16.436h10.882v2.865h-7.407v3.916h6.685v2.865h-6.685v6.79zm12.889 0h-3.42v-12.327h3.315v2.15h.129q.337-1.147 1.131-1.737.795-.59 1.83-.59.257 0 .554.032.297.032.522.089v3.033q-.241-.072-.666-.128-.426-.056-.779-.056-.754 0-1.344.325-.59.325-.931.903-.341.577-.341 1.332v6.974zm10.81.24q-1.87 0-3.23-.798-1.36-.798-2.099-2.23-.738-1.433-.738-3.327 0-1.91.738-3.343.739-1.433 2.099-2.231 1.36-.799 3.23-.799 1.87 0 3.23.799 1.36.798 2.1 2.23.737 1.433.737 3.344 0 1.894-.738 3.326-.738 1.433-2.099 2.231-1.36.799-3.23.799zm.016-2.648q.85 0 1.42-.485.57-.486.863-1.328.293-.843.293-1.919 0-1.075-.293-1.918-.292-.842-.862-1.332-.57-.49-1.42-.49-.86 0-1.441.49-.582.49-.875 1.332-.293.843-.293 1.918 0 1.076.293 1.919.293.842.875 1.328.581.485 1.44.485zm11.701-4.719v7.127h-3.418v-12.327h3.258v2.175h.144q.41-1.076 1.373-1.706.963-.63 2.335-.63 1.284 0 2.24.562.954.562 1.484 1.601.53 1.04.53 2.476v7.849h-3.42v-7.24q.009-1.13-.577-1.769-.586-.638-1.613-.638-.69 0-1.216.297t-.819.863q-.293.566-.3 1.36zm9.768-5.2h7.423v2.568h-7.423v-2.568zm1.685 8.988V508.83h3.419v11.493q0 .473.144.734.145.261.406.365.26.105.606.105.24 0 .481-.044l.37-.069.537 2.545q-.257.08-.722.188-.466.108-1.132.133-1.236.048-2.163-.33-.927-.377-1.44-1.171-.514-.795-.506-2.007zm7.777-4.767h7.496v2.713h-7.496v-2.713zm16.027 8.347q-1.902 0-3.27-.775-1.369-.774-2.107-2.199-.739-1.424-.739-3.374 0-1.903.739-3.34.738-1.436 2.082-2.238 1.345-.803 3.158-.803 1.22 0 2.276.39 1.055.389 1.845 1.167.791.779 1.232 1.954.442 1.176.442 2.75v.938h-10.41v-2.119h7.192q0-.738-.321-1.308-.321-.57-.887-.895-.566-.325-1.312-.325-.779 0-1.377.357-.598.358-.935.956-.337.597-.345 1.328v2.014q0 .915.341 1.581.341.666.967 1.027.626.362 1.485.362.57 0 1.043-.16.474-.161.81-.482.338-.321.514-.787l3.163.209q-.241 1.14-.984 1.986-.742.847-1.91 1.316-1.167.47-2.692.47zm11.308-7.368v7.127h-3.42v-12.327h3.26v2.175h.144q.41-1.076 1.372-1.706.963-.63 2.336-.63 1.284 0 2.239.562.955.562 1.484 1.601.53 1.04.53 2.476v7.849h-3.419v-7.24q.008-1.13-.578-1.769-.585-.638-1.613-.638-.69 0-1.216.297-.525.297-.818.863-.293.566-.301 1.36zm15.176 7.328q-1.404 0-2.54-.727-1.136-.726-1.798-2.143-.662-1.416-.662-3.479 0-2.118.682-3.527.683-1.408 1.818-2.11 1.136-.703 2.492-.703 1.035 0 1.73.35.694.348 1.123.866.43.518.654 1.015h.105v-6.18h3.41v16.437h-3.37v-1.974h-.145q-.24.513-.678 1.015-.437.502-1.131.83-.695.33-1.69.33zm1.084-2.721q.826 0 1.4-.453.574-.454.883-1.273.309-.818.309-1.918t-.305-1.91q-.305-.81-.883-1.252-.578-.441-1.404-.441-.843 0-1.42.457-.579.458-.876 1.268-.297.811-.297 1.878 0 1.076.301 1.898.301.823.875 1.285.574.461 1.417.461zm24.229-6.292l-3.13.193q-.08-.402-.345-.727-.265-.325-.694-.521-.43-.197-1.024-.197-.794 0-1.34.333t-.546.887q0 .441.353.746t1.212.49l2.231.45q1.798.368 2.68 1.187.884.819.884 2.15 0 1.213-.71 2.128t-1.943 1.424q-1.232.51-2.837.51-2.448 0-3.896-1.023-1.449-1.024-1.698-2.79l3.363-.176q.153.746.738 1.136.586.389 1.501.389.9 0 1.449-.35.55-.348.558-.902-.008-.466-.394-.767-.385-.3-1.187-.461l-2.135-.425q-1.806-.361-2.685-1.252t-.879-2.272q0-1.187.646-2.046.647-.859 1.822-1.324 1.176-.466 2.757-.466 2.336 0 3.68.987 1.344.988 1.569 2.689zm8.057 9.053q-1.902 0-3.27-.775-1.368-.774-2.107-2.199-.738-1.424-.738-3.374 0-1.903.738-3.34.739-1.436 2.083-2.238 1.344-.803 3.158-.803 1.22 0 2.275.39 1.056.389 1.846 1.167.79.779 1.232 1.954.441 1.176.441 2.75v.938H340.85v-2.119h7.191q0-.738-.32-1.308-.322-.57-.888-.895-.565-.325-1.312-.325-.778 0-1.376.357-.598.358-.935.956-.337.597-.345 1.328v2.014q0 .915.34 1.581.342.666.968 1.027.626.362 1.485.362.57 0 1.043-.16.473-.161.81-.482.338-.321.514-.787l3.162.209q-.24 1.14-.983 1.986-.742.847-1.91 1.316-1.168.47-2.693.47zm11.308-.241h-3.418v-12.327h3.314v2.15h.129q.337-1.147 1.131-1.737.795-.59 1.83-.59.257 0 .554.032.297.032.521.089v3.033q-.24-.072-.666-.128-.425-.056-.778-.056-.755 0-1.344.325-.59.325-.931.903-.342.577-.342 1.332v6.974zm14.077-12.327h3.62l-4.31 12.327h-3.852l-4.31-12.327h3.612l2.56 8.82h.128l2.552-8.82zm8.788 12.327h-3.419v-12.327h3.42v12.327zm-1.693-13.916q-.762 0-1.308-.51t-.546-1.224q0-.706.546-1.216t1.3-.51q.77 0 1.312.51t.542 1.216q0 .714-.542 1.224t-1.304.51zm9.992 14.157q-1.894 0-3.255-.807-1.36-.806-2.086-2.243-.727-1.437-.727-3.306 0-1.895.735-3.327.734-1.433 2.09-2.24 1.357-.806 3.227-.806 1.613 0 2.825.586 1.212.586 1.918 1.645.706 1.06.778 2.488h-3.226q-.136-.923-.718-1.488-.582-.566-1.521-.566-.795 0-1.385.43-.59.428-.918 1.247-.33.819-.33 1.982 0 1.18.326 2.007.325.826.918 1.26.594.433 1.389.433.586 0 1.055-.24.47-.241.779-.703.309-.461.405-1.111h3.226q-.08 1.412-.766 2.484-.686 1.07-1.89 1.673-1.204.602-2.85.602zm13.322 0q-1.902 0-3.27-.775-1.369-.774-2.107-2.199-.738-1.424-.738-3.374 0-1.903.738-3.34.738-1.436 2.083-2.238 1.344-.803 3.158-.803 1.22 0 2.275.39 1.055.389 1.846 1.167.79.779 1.232 1.954.441 1.176.441 2.75v.938h-10.409v-2.119h7.191q0-.738-.321-1.308-.321-.57-.887-.895-.566-.325-1.312-.325-.779 0-1.376.357-.598.358-.935.956-.337.597-.346 1.328v2.014q0 .915.342 1.581.34.666.967 1.027.626.362 1.484.362.57 0 1.044-.16.473-.161.81-.482.337-.321.514-.787l3.162.209q-.24 1.14-.983 1.986-.742.847-1.91 1.316-1.168.47-2.693.47z" fill="#4a4a4a" fill-rule="nonzero"></path><g fill-rule="nonzero"><path d="M981.96 545.58v22.6h-226v-22.6c0-3.164 2.486-5.65 5.65-5.65h214.7c3.164 0 5.65 2.486 5.65 5.65z" fill="#d2d2d2"></path><path fill="#a3a3a3" d="M763.87 546.71h4.52v4.52h-4.52zm6.78 0h4.52v4.52h-4.52zm6.78 0h4.52v4.52h-4.52z"></path></g><g fill-rule="nonzero"><path fill="#9eebcf" d="M871.22 411.11v128.82h-3.39V411.11z"></path><path stroke="#9eebcf" stroke-width="3" fill="#fff" d="M876.87 410.545a6.5 6.5 0 11-14.69 0 6.5 6.5 0 1114.69 0z"></path><path fill="#9eebcf" d="M869.525 544.45l-6.215-9.04h12.43z"></path></g><g fill-rule="nonzero"><path fill="#9eebcf" d="M871.22 567.05v97.18h-3.39v-97.18z"></path><path stroke="#9eebcf" stroke-width="3" fill="#fff" d="M876.87 566.485a6.5 6.5 0 11-14.69 0 6.5 6.5 0 1114.69 0z"></path><path fill="#9eebcf" d="M869.525 668.75l-6.215-9.04h12.43z"></path></g><path d="M981.96 855.313c0 1.13-.678 2.147-1.582 2.147H757.542c-.904 0-1.582-1.017-1.582-2.147V669.88c0-3.164 2.486-5.65 5.65-5.65h214.7c3.164 0 5.65 2.486 5.65 5.65v185.433z" fill="#e3cebc"></path><path d="M887.153 786.948l2.147-5.311c2.26-.113 4.52-.452 6.554-1.13l3.842 4.294c.678.791 1.808 1.017 2.712.452l2.486-1.469 2.373-1.469c.904-.565 1.243-1.695.904-2.712l-2.26-5.311c1.582-1.582 2.938-3.503 3.955-5.537l5.65.339c1.13.113 2.034-.678 2.26-1.695l.678-2.712.678-2.825c.226-1.017-.339-2.034-1.356-2.486l-5.311-2.26c0-2.26-.452-4.407-1.13-6.554l4.407-3.729c.791-.678.904-1.808.339-2.712l-1.469-2.373-1.469-2.486c-.565-.904-1.695-1.243-2.712-.791l-5.311 2.147c-1.582-1.469-3.39-2.825-5.424-3.842l.339-5.65c.113-1.017-.565-2.034-1.695-2.26l-2.712-.678-2.825-.565c-1.017-.339-2.034.226-2.486 1.243l-2.26 5.311c-2.26.113-4.407.452-6.554 1.13l-3.729-4.294c-.678-.791-1.808-.904-2.712-.452l-2.486 1.582-2.373 1.469c-.904.565-1.243 1.695-.904 2.599l2.26 5.424c-1.469 1.582-2.712 3.277-3.729 5.198l-5.763-.339c-1.017-.113-2.034.678-2.26 1.695l-.678 2.712-.678 2.825c-.226 1.017.339 2.034 1.356 2.486l5.311 2.26c0 2.26.339 4.407 1.017 6.554l-4.294 3.729c-.791.791-1.017 1.921-.452 2.825l1.582 2.373 1.469 2.373c.565.904 1.695 1.356 2.599.904l5.311-2.147c1.695 1.469 3.39 2.825 5.424 3.842l-.339 5.763c-.113 1.017.565 2.034 1.695 2.26l2.712.565 2.825.678c1.017.226 2.034-.339 2.486-1.243zm4.407-41.019c6.667 1.582 10.848 8.249 9.266 15.029-1.469 6.667-8.249 10.848-14.916 9.266-6.667-1.582-10.848-8.249-9.266-14.916 1.469-6.78 8.249-10.961 14.916-9.379zm-30.058 68.817l.565-3.503c1.356-.339 2.599-.904 3.729-1.582l2.938 2.034c.565.452 1.243.339 1.695-.113l1.243-1.243 1.243-1.243c.452-.452.452-1.13.113-1.695l-2.034-2.825c.678-1.243 1.243-2.486 1.582-3.955l3.39-.565c.678-.113 1.13-.678 1.13-1.243v-3.503c0-.678-.452-1.243-1.13-1.356l-3.503-.565c-.339-1.356-.904-2.599-1.582-3.729l2.147-2.938c.339-.452.339-1.243-.226-1.695l-1.13-1.243-1.243-1.13c-.452-.565-1.243-.565-1.695-.226l-2.938 2.147a15.42 15.42 0 00-3.729-1.582l-.678-3.39c0-.678-.565-1.13-1.243-1.13h-3.503c-.678 0-1.243.452-1.356 1.13l-.565 3.503c-1.356.339-2.599.904-3.729 1.582l-2.825-2.034c-.565-.452-1.356-.339-1.808.113l-1.243 1.243-1.13 1.243c-.452.452-.565 1.13-.226 1.695l2.147 2.825c-.678 1.13-1.243 2.373-1.582 3.729l-3.503.565c-.565.113-1.017.678-1.017 1.356v3.503c0 .565.452 1.13 1.017 1.243l3.503.565c.339 1.356.904 2.599 1.582 3.842l-2.034 2.825c-.339.565-.339 1.243.113 1.695l1.243 1.243 1.243 1.243c.452.452 1.13.565 1.695.113l2.938-2.034c1.13.678 2.373 1.243 3.729 1.582l.565 3.503c.113.678.678 1.13 1.356 1.13h3.503c.565-.113 1.13-.565 1.243-1.13zm-3.051-25.199c4.181 0 7.684 3.503 7.684 7.684 0 4.294-3.503 7.684-7.684 7.684s-7.684-3.39-7.684-7.684c0-4.181 3.503-7.684 7.684-7.684zm-17.741-9.04l.452-3.39c1.243-.339 2.486-.904 3.616-1.582l2.825 1.921c.452.339 1.243.226 1.582-.226l1.243-1.13 1.13-1.243c.452-.452.452-1.13.113-1.695l-2.034-2.712c.565-1.13 1.13-2.373 1.356-3.729l3.39-.678c.565-.113 1.017-.678 1.017-1.243v-1.695l-.113-1.695c0-.678-.452-1.243-1.13-1.243l-3.39-.565a12.324 12.324 0 00-1.582-3.503l1.921-2.825c.339-.565.339-1.243-.113-1.695l-1.243-1.13-1.243-1.13c-.452-.452-1.13-.452-1.695-.113l-2.712 2.034c-1.13-.565-2.373-1.13-3.616-1.356l-.678-3.277c-.113-.678-.678-1.13-1.243-1.13l-1.695.113h-1.695c-.678 0-1.243.452-1.243 1.13l-.565 3.39a12.324 12.324 0 00-3.503 1.582l-2.825-1.921c-.565-.339-1.243-.226-1.695.226l-1.13 1.243-1.13 1.13c-.452.452-.452 1.243-.113 1.695l2.034 2.712c-.565 1.13-1.13 2.373-1.356 3.616l-3.39.678c-.565.113-1.017.678-1.017 1.243v1.695l.113 1.695c0 .678.452 1.13 1.13 1.243l3.277.452c.452 1.356.904 2.486 1.582 3.616l-1.808 2.825c-.452.565-.339 1.243.113 1.695l1.243 1.13 1.243 1.13a1.21 1.21 0 001.582.113l2.712-2.034c1.13.678 2.373 1.13 3.729 1.469l.678 3.277c.113.678.565 1.13 1.243 1.017h3.39c.565-.113 1.13-.565 1.243-1.13zm-3.616-24.182c4.181-.113 7.571 3.164 7.571 7.232.113 4.068-3.051 7.458-7.119 7.571-4.181.113-7.571-3.164-7.571-7.232-.113-4.068 3.051-7.458 7.119-7.571z" fill="#6c431e" fill-rule="nonzero"></path><path d="M761.61 664.23h214.7c3.164 0 5.65 2.486 5.65 5.65v20.34h-226v-20.34c0-3.164 2.486-5.65 5.65-5.65z" fill="#ccc"></path><path d="M775.17 678.355a5.064 5.064 0 01-5.085 5.085 5.064 5.064 0 01-5.085-5.085 5.064 5.064 0 015.085-5.085 5.064 5.064 0 015.085 5.085" fill="#e74c3c"></path><path d="M793.25 678.355a5.064 5.064 0 01-5.085 5.085 5.064 5.064 0 01-5.085-5.085 5.064 5.064 0 015.085-5.085 5.064 5.064 0 015.085 5.085" fill="#f1c40f"></path><path d="M810.2 678.355a5.064 5.064 0 01-5.085 5.085 5.064 5.064 0 01-5.085-5.085 5.064 5.064 0 015.085-5.085 5.064 5.064 0 015.085 5.085" fill="#2ecc71"></path><path d="M760.864 648.41h-3.475v-16.436h6.484q1.87 0 3.186.71 1.317.71 2.01 1.966.695 1.256.695 2.893 0 1.638-.706 2.89-.707 1.252-2.043 1.95-1.336.698-3.23.698h-4.133v-2.785h3.571q1.003 0 1.657-.349.655-.35.98-.971.325-.622.325-1.433 0-.818-.325-1.432t-.984-.955q-.658-.341-1.669-.341h-2.343v13.595zm16.46.24q-1.87 0-3.23-.798-1.36-.798-2.099-2.23-.738-1.433-.738-3.327 0-1.91.738-3.343t2.099-2.231q1.36-.799 3.23-.799 1.87 0 3.23.799 1.36.798 2.099 2.23.738 1.433.738 3.344 0 1.894-.738 3.326-.738 1.433-2.099 2.231-1.36.799-3.23.799zm.016-2.648q.85 0 1.42-.485.57-.486.863-1.328.293-.843.293-1.919 0-1.075-.293-1.918-.293-.842-.862-1.332-.57-.49-1.42-.49-.86 0-1.441.49-.582.49-.875 1.332-.293.843-.293 1.918 0 1.076.293 1.919.293.842.875 1.328.581.485 1.44.485zm12.825 2.609q-1.405 0-2.54-.727-1.136-.726-1.798-2.143-.662-1.416-.662-3.479 0-2.118.682-3.527.682-1.408 1.818-2.11 1.136-.703 2.492-.703 1.035 0 1.73.35.694.348 1.123.866.43.518.654 1.015h.104v-6.18h3.411v16.437h-3.37v-1.974h-.145q-.24.513-.678 1.015-.437.502-1.132.83-.694.33-1.689.33zm1.083-2.721q.827 0 1.4-.453.575-.454.884-1.273.309-.818.309-1.918t-.305-1.91q-.305-.81-.883-1.252-.578-.441-1.405-.441-.842 0-1.42.457-.578.458-.875 1.268-.297.811-.297 1.878 0 1.076.301 1.898.301.823.875 1.285.574.461 1.416.461zm19.944 2.745q-1.701 0-3.03-.626-1.328-.626-2.106-1.726-.779-1.1-.811-2.52h3.37q.057.955.803 1.55.747.593 1.774.593.819 0 1.449-.365.63-.365.987-1.02.357-.653.357-1.504 0-.867-.365-1.525-.365-.658-1.008-1.027-.642-.37-1.468-.378-.722 0-1.4.297-.679.297-1.056.811l-3.09-.554.779-8.667h10.048v2.84h-7.183l-.426 4.118h.097q.433-.61 1.308-1.011.875-.402 1.958-.402 1.485 0 2.649.699 1.163.698 1.837 1.914.675 1.215.667 2.797.008 1.66-.767 2.949-.774 1.288-2.159 2.022-1.384.735-3.214.735zM764.41 524.11h-7.021v-16.436h6.58q1.814 0 3.026.537 1.212.538 1.822 1.49.61.95.61 2.186 0 .963-.385 1.69-.386.726-1.056 1.187-.67.462-1.529.654v.16q.94.04 1.762.53.823.49 1.336 1.369.514.879.514 2.09 0 1.309-.646 2.332t-1.906 1.617q-1.26.594-3.106.594zm-3.546-7.207v4.366h2.833q1.452 0 2.118-.558.667-.558.667-1.489 0-.682-.33-1.203-.329-.522-.935-.819-.605-.297-1.44-.297h-2.913zm0-6.42v4.069h2.576q.714 0 1.272-.253t.883-.719q.325-.465.325-1.115 0-.89-.63-1.437-.63-.545-1.786-.545h-2.64zm14.911 13.86q-1.18 0-2.103-.414-.923-.413-1.456-1.227-.534-.815-.534-2.035 0-1.027.377-1.725.377-.699 1.028-1.124.65-.425 1.48-.642.83-.217 1.746-.305 1.075-.112 1.733-.213.658-.1.955-.3.297-.201.297-.595v-.048q0-.762-.477-1.18-.478-.417-1.352-.417-.923 0-1.47.405-.545.406-.721 1.016l-3.163-.257q.241-1.124.947-1.946.707-.823 1.826-1.268 1.12-.446 2.597-.446 1.027 0 1.97.241.943.24 1.677.746.735.506 1.16 1.296.425.791.425 1.89v8.315h-3.242v-1.71h-.096q-.297.578-.795 1.016-.498.437-1.196.682-.698.245-1.613.245zm.98-2.36q.754 0 1.331-.3.578-.302.907-.815.33-.514.33-1.164v-1.308q-.161.104-.438.188-.277.085-.622.153-.345.068-.69.12l-.626.093q-.602.088-1.051.28-.45.193-.699.518-.249.325-.249.807 0 .698.51 1.063t1.296.365zm14.188 2.368q-1.894 0-3.254-.807-1.36-.806-2.087-2.243-.726-1.437-.726-3.306 0-1.895.734-3.327.735-1.433 2.091-2.24 1.356-.806 3.226-.806 1.614 0 2.825.586 1.212.586 1.919 1.645.706 1.06.778 2.488h-3.226q-.137-.923-.719-1.488-.581-.566-1.52-.566-.795 0-1.385.43-.59.428-.919 1.247-.329.819-.329 1.982 0 1.18.325 2.007.325.826.92 1.26.593.433 1.388.433.585 0 1.055-.24.47-.241.778-.703.31-.461.406-1.111h3.226q-.08 1.412-.766 2.484-.687 1.07-1.89 1.673-1.204.602-2.85.602zm13.066-6.373l-2.263 2.585.008-4.101h.497l3.95-4.68h3.924l-5.305 6.196h-.81zm-1.942 6.132h-3.419v-16.436h3.419v16.436zm8.29 0h-4.004l-3.628-5.37 2.28-2.415 5.352 7.785zm6.541.24q-1.902 0-3.27-.774-1.369-.774-2.107-2.199-.738-1.424-.738-3.374 0-1.903.738-3.34.738-1.436 2.083-2.238 1.344-.803 3.158-.803 1.22 0 2.275.39 1.055.389 1.846 1.167.79.779 1.232 1.954.441 1.176.441 2.75v.938h-10.409v-2.119h7.19q0-.738-.32-1.308-.321-.57-.887-.895-.566-.325-1.312-.325-.779 0-1.377.357-.597.358-.934.956-.338.597-.346 1.328v2.014q0 .915.342 1.581.34.666.967 1.027.626.362 1.484.362.57 0 1.044-.16.473-.161.81-.482.337-.321.514-.787l3.162.209q-.24 1.14-.983 1.986-.743.847-1.91 1.316-1.168.47-2.693.47zm11.308-7.367v7.127h-3.419v-12.327h3.259v2.175h.144q.41-1.076 1.372-1.706.964-.63 2.336-.63 1.284 0 2.24.562.954.562 1.484 1.601.53 1.04.53 2.476v7.849h-3.42v-7.24q.009-1.13-.577-1.769-.586-.638-1.613-.638-.69 0-1.216.297t-.819.863q-.293.566-.3 1.36zm15.177 7.328q-1.405 0-2.54-.727-1.136-.726-1.798-2.143-.662-1.416-.662-3.479 0-2.118.682-3.527.682-1.408 1.818-2.11 1.135-.703 2.491-.703 1.036 0 1.73.35.694.348 1.124.866.429.518.654 1.015h.104v-6.18h3.41v16.437h-3.37v-1.974h-.144q-.241.513-.678 1.015-.438.502-1.132.83-.694.33-1.69.33zm1.083-2.721q.827 0 1.4-.453.574-.454.883-1.273.31-.818.31-1.918t-.306-1.91q-.305-.81-.883-1.252-.577-.441-1.404-.441-.843 0-1.42.457-.578.458-.875 1.268-.297.811-.297 1.878 0 1.076.3 1.898.302.823.875 1.285.574.461 1.417.461zm24.23-6.292l-3.13.193q-.081-.402-.346-.727-.265-.325-.694-.521-.43-.197-1.023-.197-.795 0-1.34.333-.546.333-.546.887 0 .441.353.746t1.212.49l2.23.45q1.798.368 2.681 1.187.883.819.883 2.15 0 1.213-.71 2.128t-1.942 1.424q-1.232.51-2.837.51-2.448 0-3.897-1.023-1.448-1.024-1.697-2.79l3.362-.176q.153.746.739 1.136.586.389 1.5.389.9 0 1.45-.35.549-.348.557-.902-.008-.466-.393-.767-.386-.3-1.188-.461l-2.135-.425q-1.806-.361-2.684-1.252-.88-.891-.88-2.272 0-1.187.647-2.046.646-.859 1.822-1.324 1.175-.466 2.756-.466 2.336 0 3.68.987 1.344.988 1.57 2.689zm8.057 9.053q-1.902 0-3.27-.775-1.369-.774-2.107-2.199-.739-1.424-.739-3.374 0-1.903.739-3.34.738-1.436 2.082-2.238 1.345-.803 3.158-.803 1.22 0 2.276.39 1.055.389 1.846 1.167.79.779 1.231 1.954.442 1.176.442 2.75v.938H872v-2.119h7.192q0-.738-.321-1.308-.321-.57-.887-.895-.566-.325-1.312-.325-.779 0-1.377.357-.598.358-.935.956-.337.597-.345 1.328v2.014q0 .915.341 1.581.341.666.967 1.027.626.362 1.485.362.57 0 1.043-.16.474-.161.81-.482.338-.321.515-.787l3.162.209q-.241 1.14-.984 1.986-.742.847-1.91 1.316-1.167.47-2.692.47zm11.308-.241h-3.419v-12.327h3.315v2.15h.128q.337-1.147 1.132-1.737.794-.59 1.83-.59.256 0 .553.032.297.032.522.089v3.033q-.241-.072-.666-.128-.426-.056-.779-.056-.754 0-1.344.325-.59.325-.931.903-.341.577-.341 1.332v6.974zm14.077-12.327h3.62l-4.31 12.327h-3.853l-4.31-12.327h3.612l2.56 8.82h.129l2.552-8.82zm8.788 12.327h-3.42v-12.327h3.42v12.327zm-1.694-13.916q-.762 0-1.308-.51t-.546-1.224q0-.706.546-1.216t1.3-.51q.77 0 1.312.51t.542 1.216q0 .714-.542 1.224-.541.51-1.304.51zm9.992 14.157q-1.894 0-3.254-.807-1.36-.806-2.087-2.243-.726-1.437-.726-3.306 0-1.895.734-3.327.734-1.433 2.09-2.24 1.357-.806 3.227-.806 1.613 0 2.825.586 1.212.586 1.918 1.645.706 1.06.779 2.488h-3.227q-.136-.923-.718-1.488-.582-.566-1.52-.566-.795 0-1.385.43-.59.428-.92 1.247-.328.819-.328 1.982 0 1.18.325 2.007.325.826.919 1.26.594.433 1.388.433.586 0 1.056-.24.47-.241.778-.703.31-.461.405-1.111h3.227q-.08 1.412-.767 2.484-.686 1.07-1.89 1.673-1.204.602-2.849.602zm13.323 0q-1.902 0-3.27-.775-1.37-.774-2.108-2.199-.738-1.424-.738-3.374 0-1.903.738-3.34.739-1.436 2.083-2.238 1.344-.803 3.158-.803 1.22 0 2.275.39 1.056.389 1.846 1.167.79.779 1.232 1.954.442 1.176.442 2.75v.938h-10.41v-2.119h7.191q0-.738-.32-1.308-.322-.57-.887-.895-.566-.325-1.313-.325-.778 0-1.376.357-.598.358-.935.956-.337.597-.345 1.328v2.014q0 .915.34 1.581.342.666.968 1.027.626.362 1.485.362.57 0 1.043-.16.474-.161.81-.482.338-.321.514-.787l3.162.209q-.24 1.14-.983 1.986-.742.847-1.91 1.316-1.168.47-2.692.47z" fill="#4a4a4a" fill-rule="nonzero"></path><g fill="#b8e986"><path d="M595.5 404.33l-40.68-73.45h81.36z"></path><path d="M584.2 256.3h22.6v127.69h-22.6z"></path></g><g fill-rule="nonzero"><path d="M449.73 256.3v-79.552c0-1.695 1.469-3.164 3.164-3.164h61.359c1.243-.452.791-.791.565-1.13-3.955-6.441-6.441-13.447-7.458-21.131-2.26-17.402 2.712-32.431 14.577-45.426.678-.791 1.243-1.469 2.034-2.147.565-.565.565-.565 0-1.13-1.808-1.695-3.503-3.616-4.859-5.876-3.164-4.972-4.972-10.396-5.085-16.385 0-1.469.226-1.695 1.582-1.017 1.469.678 2.938 1.356 4.52 1.808.226-2.599-.113-4.746-.113-7.006 0-.791-.113-1.582 0-2.373 0-1.13.339-1.356 1.356-.791a38.624 38.624 0 004.859 2.373c1.017.452 1.017.452.904-.678a35.44 35.44 0 010-8.475c.226-1.13.791-1.356 1.13-1.017.226.226.452.565.678.791 3.503 4.407 7.345 8.249 11.978 11.413 4.068 2.712 8.475 4.181 13.334 4.181 3.729.113 7.232-.678 10.622-2.034 3.164-1.13 6.328-2.486 9.605-3.164 3.277-.678 6.667-1.017 10.057-.226 5.65 1.356 9.492 5.085 11.978 10.283.904 2.034 1.356 4.068 1.695 6.215.113.904.113.904 1.017.791 4.972-.339 9.718.452 14.012 3.051 5.198 3.051 8.136 7.797 9.266 13.56.791 4.294.565 8.588-.113 12.882-.565 3.39-1.469 6.667-2.486 9.831-.339.791-.452.791.565 1.13 4.972 1.695 8.136 5.198 9.04 10.396 1.243 7.232-3.277 13.56-9.944 15.142a10.86 10.86 0 01-3.842.339c-.452-.113-.678.226-.791.678a63.611 63.611 0 01-3.842 10.057c-3.277 6.441-7.571 11.978-12.995 16.724-1.243.904-1.356 1.356-1.13 2.034.678 1.808 1.243 3.616 1.808 5.311 3.616 11.413 7.345 22.713 10.961 34.126.339.791.678 1.13 1.469 1.243 3.616.791 5.876 3.051 6.78 6.554.226.791.339 1.582.452 2.373.904-.565 1.243-1.017 1.808-1.469 1.469-1.243 3.164-1.582 5.085-.904 1.808.678 2.938 2.034 3.277 4.068.113.678.226.791.904.904 3.164.565 5.085 3.616 3.955 6.667-.226.791-.113 1.356.452 2.034 1.356 1.582 2.147 3.616 2.486 5.763.113.904 0 .904 1.017.904h18.645c0-1.921-.565-3.39-.904-4.972-2.147.113-3.616.452-4.972.904-.791.339-1.243.113-1.356-.339-.113-.452.226-.678.904-.904 1.356-.452 2.712-.791 3.955-1.243 1.356-.339 1.13-.113 1.13-1.469 0-.678-.226-.791-.565-.791h-6.554c-1.13-.113-1.356-.339-1.356-.678.904-.678 1.13-.565 1.356-.565h6.441c.565 0 .791-.226.904-.791.226-1.582.226-1.582-1.243-2.034-1.356-.339-2.599-.791-3.842-1.13-1.017-.339-1.13-.678-1.13-1.017 1.017-.452 1.356-.339 1.582-.226 1.582.452 3.051.904 4.633 1.356 2.034-3.164 3.842-5.424 6.215-7.119.452-.339.565-.678.565-1.243v-13.899c.113-.678.565-.904 1.017-.565 4.52 4.181 8.475 7.797 12.317 11.413 1.017 1.017.678 1.017 1.921.113a24.455 24.455 0 0128.25 0c1.017.791.791 1.017 1.921-.113 3.955-3.616 7.91-7.232 11.865-10.961.339-.226.678-.791 1.243-.565.678.226.452.791.452 1.243v20.34c0 1.356 0 1.356 1.243.904 1.017-.226 2.034-.565 3.164-.904 1.582.678 1.469.904 1.017 1.13l-2.599.791-2.26.678c-.678 1.017-.678 1.695-.565 2.373 3.277.226 5.198.226 7.232.226 1.13.113 1.356.339 1.243.678-.791.678-1.13.678-1.356.678h-6.328c-.904 0-.904 0-.904.791 0 1.469-.113 1.13 1.13 1.469 1.13.452 2.486.678 3.729 1.13 1.017.452 1.13.678 1.017 1.13-2.712-.226-3.842-.565-5.198-.904-.678 1.808-.678 3.164-.678 4.52 0 .452.113.678.678.678h19.549c.452 0 1.017 0 1.469.226v.904c-1.13.226-1.469.226-1.808.226H449.73z" fill="#151d38"></path><path d="M502.162 248.39v-.113h50.398c1.13 0 1.13 0 1.13-1.13v-70.173c0-1.13-.678-1.921-1.921-2.034h-98.536c-1.695.113-2.373.791-2.373 2.373v69.947c0 1.13 0 1.13 1.13 1.13h50.172z" fill="#ccd6da"></path><path d="M534.706 173.584h16.498c1.695 0 2.938 1.017 3.277 2.599.113.339.113.678.113 1.13v18.758c0 1.017.113 1.017.904 1.017 6.554.904 13.108.452 19.549-1.243 14.69-3.842 25.764-12.43 33.335-25.538 2.26-3.729 3.842-7.684 4.972-11.865.226-.904.226-.904-.452-1.13-.452-.113-.904-.226-1.243-.339-.791-.339-1.017-.565-.904-1.017.113-.565.565-.565 1.356-.339 2.147.791 4.294 1.017 6.554.565 6.667-1.243 10.961-8.023 9.266-14.69-1.808-6.667-8.814-10.509-15.255-8.249-.339 0-.565.226-.904.226-.339.113-.565-.113-.678-.339-.113-.339 0-.565.226-.791a.863.863 0 01.565-.226c.452-.226.904-.339 1.356-.452.113-.113.226-.113.339-.226.113-.226-.113-.226-.339-.226-.113-.113-.339-.113-.565-.226a41.88 41.88 0 01-9.605-4.633c-5.424-3.616-9.605-8.136-12.317-14.125-1.243-2.825-2.034-5.763-2.599-8.814-.113-.904-.113-.904-.904-.565-.226.226-.452.339-.791.452-3.955 2.373-8.023 4.407-12.43 5.989-9.266 3.503-18.871 4.972-28.702 3.164-6.78-1.243-13.221-3.729-18.758-8.023-.791-.452-.791-.452-1.356.113-4.972 4.859-9.04 10.396-11.865 16.724-4.52 9.944-5.876 20.227-4.181 31.075 1.13 7.232 3.729 14.012 7.571 20.227.452.791 1.017 1.13 1.921 1.13 5.311-.113 10.622-.113 16.046-.113z" fill="#fae0d6"></path><path d="M554.82 223.53v24.521c0 .565.226.791.791.791H572.9c1.017 0 1.13.113 1.13 1.017v4.52c0 .678-.113.791.678.791h17.402c.678 0 .791-.226.791-.678.226-1.695.678-3.277 1.582-4.633.339-.565.339-1.017.113-1.582l-2.712-8.475c-2.26-6.893-4.52-13.899-6.78-20.792 0-.226-.113-.452-.226-.678 0-.452.113-.791.565-.791.339-.113.565 0 .791.339 0 .113 0 .339.113.452 1.582 4.859 3.164 9.831 4.746 14.69 1.469 4.633 2.938 9.266 4.52 13.899.226.791.226.791.791.226 1.695-1.582 3.616-2.599 5.763-3.164.678-.113.791-.113.565-.791-.339-1.469-.791-3.051-1.13-4.52-1.017-4.633 1.808-9.266 6.215-10.396.339-.113.565-.113.904-.226.339 0 .452-.226.339-.565-.113-.226-.113-.339-.226-.452-3.503-11.074-7.119-22.035-10.622-33.109l-2.034-6.102c-.113-.452-.339-.678-.678-.226a1.56 1.56 0 01-.452.339 45.61 45.61 0 01-9.605 5.65c-6.554 3.051-13.56 4.859-20.792 5.085-3.051.113-6.215.113-9.153-.339-.565-.113-.678.113-.678.565v24.634z" fill="#fff3a2"></path><path d="M699.008 255.057h19.775c1.017 0 1.017 0 1.017-.904v-33.448c0-.226.113-.452-.113-.565-.226-.113-.339.226-.565.339-2.373 2.26-4.859 4.52-7.345 6.78-1.469 1.356-2.938 2.825-4.407 4.181-.678.565-.791.565-1.469.113-.226-.226-.339-.339-.565-.452-3.503-2.712-7.458-4.294-11.978-4.633-5.876-.452-11.187 1.13-15.933 4.859-1.017.791-1.017.791-2.034-.113l-.113-.113-10.848-10.17c-.226-.226-.452-.791-.904-.565-.226.113-.113.565-.113.904v11.865c0 .565 0 1.017-.565 1.356-6.554 4.407-8.023 13.108-4.294 19.775.339.678.791.904 1.582.904h14.351c.339 0 .791.113.904-.226.113-.226-.339-.452-.565-.678-2.373-2.599-3.051-5.537-2.034-8.814.904-3.277 3.277-5.311 6.554-5.989.678-.226 1.356-.339 2.034-.226.339 0 .565.226.565.678 0 .339-.226.565-.565.565-.452.113-.791.113-1.13.113-3.164.452-5.876 2.825-6.441 5.876a7.537 7.537 0 003.39 8.023c.678.452 1.356.678 2.26.678 6.667-.113 13.108-.113 19.549-.113z" fill="#c27659"></path><path d="M502.275 249.52c-9.266.113-18.532.113-27.685.113h-23.052c-.452 0-.678.113-.678.565v2.373c0 1.469 0 1.469 1.695 1.469h38.759c20.227 0 40.454-.113 60.681-.113h.791c.678 0 .904-.226.904-.791v-3.051c0-.452-.226-.565-.678-.565h-50.737zm112.435 5.65h19.775c.452 0 .565-.113.565-.565a11.348 11.348 0 00-2.034-5.311c-.226-.226-.339-.226-.452.113-.113.113-.113.339-.226.452-1.469 3.164-5.085 4.068-7.797 1.808-.452-.452-.791-.452-1.356-.226-1.695.678-3.277.452-4.746-.565-1.582-1.13-2.26-2.599-2.147-4.633.113-.678 0-.678-.565-.565-1.356.452-2.712.226-3.955-.452-.226-.226-.565-.226-.904-.226h-6.215c-4.746.113-8.814 3.503-10.057 8.249-.113.452-.226.904-.226 1.469 0 .339.113.452.452.452h19.888z" fill="#ccd6da"></path><path d="M606.8 243.079h2.486c.339 0 .452-.113.339-.452-.904-2.373-1.017-4.972-1.582-7.458-.113-.565.113-.904.452-1.017.452-.113.791.226.904.791l.339 1.695c.226 1.469.452 2.938.791 4.407.452 1.921 2.373 3.164 4.52 2.712 2.034-.339 3.277-2.034 3.051-4.068-.339-1.695-.565-3.39-1.017-4.972-.904-3.729-4.859-6.102-8.814-5.424-3.842.678-6.554 4.407-5.876 8.023.339 1.695.904 3.39 1.243 5.198.113.339.339.565.791.565h2.373zm11.3 3.729c.113 1.356.452 2.373 1.469 3.051 2.147 1.582 5.085.791 5.989-1.695.904-2.373 1.695-4.859 2.486-7.232.113-.339.113-.565.226-.904.113-1.808-.904-3.39-2.712-3.955-1.695-.452-3.616.226-4.407 1.808-.565 1.13-1.017 2.26-1.243 3.503-.113.904-.339 1.808-.791 2.599a7.135 7.135 0 00-1.017 2.825z" fill="#fae0d6"></path><path d="M563.634 254.04h8.475c.452-.113.791-.226.791-.678v-3.39c0-.339-.226-.452-.452-.452h-16.837c-.565 0-.791.226-.791.678v3.051c0 .791 0 .791.904.791h7.91z" fill="#ccd6da"></path><path d="M632.79 245.452c0-2.034-1.356-3.503-3.277-3.729-.904-.226-1.017-.113-1.243.565-.565 1.469-1.017 2.825-1.582 4.181-.452 1.243-.678 2.599-1.695 3.729-.339.339 0 .565.226.791 2.034 1.469 5.085.791 6.215-1.469.452-1.017.791-2.147 1.243-3.277.113-.339.113-.678.113-.791z" fill="#fae0d6"></path><path d="M515.27 212.456c-.339 5.537-3.729 9.605-8.814 10.735-6.441 1.582-12.769-2.938-13.673-9.492-.791-5.65 2.825-11.3 8.588-12.656 1.243-.226 1.356-.226 1.582 1.017.791 4.294 3.616 7.458 7.797 8.475 1.017.226 1.921.226 2.938.113 1.356-.113 1.469 0 1.582 1.356v.452z" fill="#151d38"></path><path d="M504.196 222.4c.678 0 1.582-.113 2.486-.339 4.068-1.13 7.232-5.085 7.458-9.153 0-1.017 0-1.017-.791-1.017-5.537.113-10.283-3.616-11.413-8.927-.339-1.243-.452-.904-1.243-.678-4.633 1.582-7.571 6.441-6.78 11.526.791 4.859 5.085 8.588 10.283 8.588z" fill="#fff"></path><path d="M553.464 132.452h14.916c2.26 0 4.52 0 6.78.113 1.13 0 1.356.452.904 1.356-3.39 6.328-8.249 10.735-15.255 12.317-7.119 1.469-13.334-.452-18.645-5.537-2.147-1.921-3.729-4.294-4.972-6.893-.113-.339-.339-.565-.339-.791-.226-.565 0-.791.565-1.017h.565c4.407 0 8.814.113 13.221.113.791 0 1.469.113 2.26.113v.226z" fill="#151d38"></path><path d="M557.193 133.356h-4.068c-1.695 0-3.277 0-4.972-.113-2.825-.113-5.763-.113-8.588-.113-.678 0-.678 0-.339.565 1.13 2.034 2.599 3.842 4.294 5.424 4.972 4.407 10.848 6.215 17.402 4.859 6.102-1.13 10.622-4.52 13.899-9.492.565-.904.565-1.017-.565-1.017-5.65 0-11.413-.113-17.063-.113z" fill="#fff"></path><path d="M514.14 139.345c0-3.729 2.825-7.345 7.345-7.345a7.33 7.33 0 017.345 7.345 7.33 7.33 0 01-7.345 7.345 7.33 7.33 0 01-7.345-7.345zm87.01 1.13c.113 3.503-2.825 7.345-7.345 7.345a7.33 7.33 0 01-7.345-7.345c0-4.068 3.164-7.345 7.345-7.345 4.407-.113 7.571 3.616 7.345 7.345z" fill="#e5384a"></path><path d="M531.655 122.96c2.26 0 3.955 1.695 3.955 3.955s-1.695 3.955-3.842 3.955c-2.26 0-4.068-1.695-4.068-3.955 0-2.147 1.695-3.955 3.955-3.955zm50.85 1.13c2.26 0 3.955 1.695 3.955 4.068 0 2.147-1.808 3.842-3.955 3.842-2.147 0-3.955-1.808-3.955-3.955 0-2.26 1.695-3.955 3.955-3.955zm41.245 20.453c0 4.52-4.746 7.797-9.266 6.328-.113-.113-.226-.113-.339-.226-.452-.113-.678-.452-.452-.904.113-.339.452-.452.904-.339.226 0 .452.226.678.226 3.164.791 6.441-1.13 7.006-4.068.678-3.164-1.469-6.102-4.746-6.554-.226 0-.565-.113-.904-.113-.226 0-.452-.339-.452-.565 0-.452.226-.565.565-.678h.791c3.616.452 6.215 3.39 6.215 6.893zm-66.67-21.922c0 .339-.226.452-.565.678-.904.452-1.808.904-2.712 1.469-.339.113-.452.339 0 .565.678.565 1.469 1.13 2.147 1.695.226.113.452.339.565.452.226.226.226.565.113.904-.226.226-.452.226-.791.226a1.56 1.56 0 00-.452-.339c-1.13-.904-2.26-1.695-3.39-2.599-.791-.678-.791-1.13.113-1.695 1.243-.678 2.599-1.356 3.842-2.034.678-.226 1.13 0 1.13.678zm-35.03 2.486c.113-3.277 2.26-5.989 5.311-6.554.339-.113.678-.113 1.017-.113.226.113.452.339.452.565 0 .339-.113.678-.339.791-.339 0-.678.113-.904.113-2.373.565-3.955 2.373-4.181 4.972v.791c-.113.452-.226.678-.678.678-.452 0-.565-.339-.678-.791v-.452zm68.93 0v.791c-.113.339-.339.452-.678.452s-.565-.226-.565-.452v-.678c-.226-2.712-1.921-4.746-4.407-5.311-.226 0-.339 0-.452-.113-.452-.113-.791-.339-.678-.791.113-.565.452-.565.904-.565 1.469.226 2.825.791 3.842 1.808 1.243 1.356 1.921 2.938 2.034 4.859zM691.211 251.78c-1.695-.113-2.938-.565-3.729-1.695-.339-.452-.565-.452-.904 0-1.582 1.921-3.955 2.26-5.763.904-.678-.452-1.243-1.017-1.582-1.808-.113-.339-.226-.904.226-1.13.452-.226.791 0 1.017.452.113.339.339.565.565.904 1.469 1.695 4.068 1.13 4.972-1.017.113-.452.226-.791-.339-.904-.904-.226-1.356-.904-1.921-1.582-.226-.226-.339-.565-.452-.904-.113-.678.113-1.13.791-1.13h5.876c.565 0 .791.452.678 1.13-.339 1.13-1.13 1.695-1.921 2.26-.339.226-.791.226-.904.565 0 .452.226.791.452 1.243 1.243 1.808 3.729 1.808 5.085 0l.339-.678c.226-.339.565-.452.904-.226.339.113.452.452.226.791a4.92 4.92 0 01-1.13 1.808c-.904.678-1.808 1.017-2.486 1.017zm15.029-12.43c1.921 0 3.39 1.469 3.39 3.39s-1.582 3.39-3.503 3.39-3.277-1.582-3.277-3.503 1.469-3.277 3.39-3.277zm-39.55 6.78c-1.921 0-3.39-1.469-3.39-3.39s1.356-3.39 3.277-3.39c2.034 0 3.503 1.469 3.503 3.39s-1.469 3.39-3.39 3.39z" fill="#151d38"></path></g><g fill="#7da159" fill-rule="nonzero"><path d="M624.048 271.504h3.475v16.436h-3.475v-16.436zm9.696 9.31v7.126h-3.42v-12.328h3.26v2.176h.144q.409-1.076 1.372-1.706.962-.63 2.335-.63 1.284 0 2.239.562.955.562 1.485 1.601.53 1.04.53 2.476v7.849h-3.42v-7.239q.01-1.132-.576-1.77-.588-.638-1.614-.638-.69 0-1.215.297-.527.298-.82.863-.294.566-.3 1.36zm16.204 7.367q-1.895 0-3.254-.807-1.362-.806-2.088-2.243-.726-1.436-.726-3.307 0-1.893.734-3.326t2.09-2.239q1.357-.807 3.227-.807 1.614 0 2.825.586t1.918 1.645q.706 1.06.78 2.488h-3.228q-.136-.923-.718-1.488-.581-.566-1.52-.566-.795 0-1.385.43-.59.429-.92 1.247-.327.82-.327 1.982 0 1.18.324 2.007t.919 1.26q.594.434 1.388.434.586 0 1.056-.241.469-.242.778-.703.309-.461.405-1.112h3.226q-.079 1.413-.766 2.485-.686 1.071-1.89 1.672-1.204.603-2.85.603zm13.273 0q-1.87 0-3.23-.8-1.36-.797-2.1-2.23-.737-1.433-.737-3.327 0-1.91.738-3.342.739-1.433 2.1-2.23 1.36-.8 3.229-.8 1.87 0 3.232.8 1.36.797 2.097 2.23.739 1.433.739 3.342 0 1.894-.739 3.327-.738 1.433-2.098 2.23-1.361.8-3.231.8zm.017-2.649q.85 0 1.42-.486t.862-1.328q.294-.843.294-1.917 0-1.076-.294-1.919-.292-.842-.862-1.332-.57-.49-1.42-.49-.859 0-1.44.49-.583.49-.876 1.333-.293.842-.293 1.918 0 1.074.293 1.917t.875 1.33q.582.485 1.44.485zm11.701 2.408h-3.42v-12.328h3.26v2.176h.144q.384-1.085 1.284-1.71.898-.626 2.15-.626 1.268 0 2.159.63.892.63 1.188 1.706h.13q.375-1.06 1.366-1.698.993-.638 2.349-.638 1.725 0 2.804 1.096 1.08 1.095 1.08 3.101v8.291h-3.411v-7.616q0-1.029-.546-1.542-.546-.513-1.364-.513-.93 0-1.453.59-.522.59-.522 1.553v7.528h-3.314v-7.689q0-.907-.518-1.444-.517-.538-1.36-.538-.57 0-1.023.285-.454.285-.719.795-.264.51-.264 1.192v7.399zm20.609 0h-3.418v-12.328h3.418v12.328zm-1.693-13.916q-.763 0-1.308-.51-.546-.51-.546-1.223 0-.707.546-1.216.545-.51 1.3-.51.77 0 1.312.509.543.51.543 1.217 0 .714-.543 1.223-.542.509-1.304.509zm7.841 6.79v7.126h-3.42v-12.328h3.26v2.176h.143q.41-1.076 1.373-1.706.963-.63 2.336-.63 1.284 0 2.239.562.954.562 1.484 1.601.53 1.04.53 2.476v7.849h-3.42v-7.239q.009-1.132-.577-1.77-.585-.638-1.613-.638-.69 0-1.216.297-.525.298-.818.863-.294.566-.3 1.36zm16.188 11.925q-1.662 0-2.846-.45-1.183-.448-1.881-1.211-.699-.763-.908-1.694l3.162-.425q.145.337.458.639.313.3.83.492.518.192 1.265.192 1.115 0 1.842-.528.726-.53.726-1.742v-2.255h-.144q-.225.514-.675.972-.449.456-1.155.745t-1.686.29q-1.389 0-2.524-.647t-1.806-1.982q-.67-1.336-.67-3.383 0-2.095.682-3.498.683-1.405 1.819-2.103 1.135-.699 2.491-.699 1.035 0 1.734.35t1.127.866q.43.518.663 1.015h.128v-2.07h3.395v12.448q0 1.54-.77 2.58-.771 1.04-2.132 1.568-1.36.531-3.125.531zm.072-7.544q.826 0 1.401-.413.573-.414.881-1.187.31-.775.31-1.859t-.305-1.882q-.305-.798-.883-1.24-.578-.44-1.404-.44-.843 0-1.42.451-.58.455-.875 1.257-.297.802-.297 1.853 0 1.07.3 1.842.302.775.875 1.198.574.42 1.417.42z"></path><path transform="matrix(1.13 0 0 1.13 449.73 63.07)"></path><path d="M623.117 300.472h7.424v2.57h-7.424v-2.57zm1.686 8.989v-11.942h3.418v11.492q0 .475.145.735t.406.366q.26.104.605.104.241 0 .482-.044l.37-.068.537 2.543q-.256.08-.723.19-.464.108-1.13.131-1.237.049-2.164-.328-.927-.378-1.44-1.172-.514-.795-.506-2.007zm11.38 3.339h-3.419v-12.328h3.315v2.151h.128q.337-1.147 1.132-1.737.795-.59 1.83-.59.256 0 .554.032t.522.088v3.034q-.241-.072-.667-.128-.425-.057-.779-.057-.753 0-1.344.325-.59.326-.93.904-.342.577-.342 1.332v6.974zm8.988.233q-1.18 0-2.101-.414-.924-.413-1.458-1.227-.533-.815-.533-2.034 0-1.028.377-1.727t1.028-1.123q.649-.426 1.48-.642.831-.217 1.745-.305 1.076-.113 1.734-.212.659-.102.955-.302.297-.2.297-.593v-.049q0-.763-.477-1.18-.478-.418-1.353-.418-.923 0-1.469.407-.546.405-.722 1.015l-3.162-.257q.241-1.124.947-1.947.707-.822 1.826-1.267 1.12-.446 2.596-.446 1.028 0 1.97.241t1.678.746q.734.506 1.16 1.296.425.791.425 1.89v8.315h-3.243v-1.71h-.096q-.296.579-.794 1.016-.498.437-1.196.682-.698.245-1.614.245zm.98-2.36q.754 0 1.332-.3.578-.302.907-.815.33-.514.33-1.164v-1.308q-.16.105-.438.188-.278.085-.621.153-.346.068-.692.12-.344.053-.626.092-.6.088-1.05.282-.45.192-.699.517-.249.326-.249.807 0 .698.509 1.062.51.366 1.297.366zm7.64-10.2h7.608v2.568h-7.608v-2.568zm5.153 12.327h-3.412v-13.218q0-1.34.527-2.223.525-.883 1.44-1.325.915-.44 2.079-.44.786 0 1.44.12.655.12.976.216l-.61 2.569q-.202-.065-.494-.121-.293-.057-.598-.057-.755 0-1.051.35-.297.349-.297.975V312.8zm3.563-12.328h7.608v2.57h-7.608v-2.57zm5.153 12.328h-3.412v-13.218q0-1.34.527-2.223.525-.883 1.44-1.325.916-.44 2.078-.44.787 0 1.441.12t.975.216l-.61 2.569q-.2-.065-.494-.121-.292-.057-.597-.057-.754 0-1.051.35-.297.349-.297.975V312.8zm7.96 0h-3.418v-12.328h3.418V312.8zm-1.692-13.916q-.763 0-1.309-.51-.546-.51-.546-1.223 0-.707.546-1.216.546-.51 1.3-.51.771 0 1.313.509.542.51.542 1.217 0 .714-.542 1.223-.543.509-1.304.509zm9.991 14.157q-1.894 0-3.254-.807-1.36-.806-2.086-2.243-.727-1.436-.727-3.307 0-1.893.735-3.326t2.09-2.239q1.356-.807 3.226-.807 1.614 0 2.825.586 1.212.586 1.918 1.645.706 1.06.78 2.488h-3.228q-.135-.923-.717-1.488-.582-.566-1.521-.566-.795 0-1.384.43-.59.429-.92 1.247-.328.82-.328 1.982 0 1.18.324 2.007t.919 1.26q.594.434 1.389.434.585 0 1.055-.241.47-.242.779-.703.308-.461.404-1.112h3.226q-.079 1.413-.766 2.485-.686 1.071-1.89 1.672-1.204.603-2.848.603z"></path></g><path d="M323.735 684.796V554.055h109.61v-155.94H595.5V256.3" stroke-dasharray="12" style="animation:1s linear infinite both a0_do" stroke-width="14.69" stroke="#f5a623"></path><path d="M869.525 684.796l-.565-286.681H595.5V256.3" stroke-dasharray="12" style="animation:1s linear infinite both a1_do" stroke-width="14.69" stroke="#f5a623"></path><path d="M576.855 684.796V554.055h-143.51v-155.94H595.5V256.3" stroke-dasharray="12" style="animation:1s linear infinite both a2_do" stroke-width="14.69" stroke="#f5a623"></path></g></svg>